<svg xmlns="http://www.w3.org/2000/svg" viewBox="0 0 400 400" fill="none">
  <rect width="400" height="400" rx="80" fill="#00D632"/>
  <path d="M230.8 161.2c-5.6-6.1-15-9.7-26.5-9.7-10.7 0-18.1 4.1-18.1 11.2 0 8.2 9.7 10.7 21.9 13.3 25.5 5.4 54 11.7 54 46.4 0 30.1-22.9 48.9-54.3 52.5l-3.8 22.7h-36.7l3.8-22.4c-19.9-3.1-38-12-48.4-25.5l29.3-25c8.2 10.2 21.1 16.8 33.4 16.8 11.7 0 20.1-4.8 20.1-13 0-9.2-9.9-12.2-22.7-15-25-5.4-53.3-11.7-53.3-44.9 0-29.1 22.4-47.4 51.8-50.5l3.6-21.3h36.7l-3.6 21c16.8 2.6 30.8 9.7 40.8 21.2l-28 22.2z" fill="#fff"/>
</svg>
