<svg xmlns="http://www.w3.org/2000/svg" viewBox="0 0 400 400" fill="none">
  <rect width="400" height="400" rx="80" fill="#F7931A"/>
  <path d="M289 183.5c4-26.5-16.2-40.7-43.8-50.2l9-35.8-21.9-5.3-8.7 35.1c-5.8-1.4-11.7-2.7-17.6-4l8.7-35.1-21.9-5.3-9 35.8c-4.8-1.1-9.5-2.2-14-3.3l0-.1-30.2-7.6-5.8 23.4s16.2 3.7 15.9 3.9c8.9 2.2 10.5 7.9 10.2 12.5L149.8 189c.6.2 1.4.4 2.3.8-.7-.2-1.5-.4-2.3-.6l-14.3 57.6c-1.1 2.7-3.8 6.6-9.9 5.1.2.3-15.9-4-15.9-4l-10.9 25.1 28.5 6.9c5.3 1.3 10.5 2.7 15.6 4l-9.1 36.3 21.9 5.3 9-35.8c6 1.6 11.8 3.1 17.4 4.5l-8.9 35.5 21.9 5.3 9.1-36.1c37.1 7 65 4.2 76.7-29.4 9.5-27-.4-42.6-20-52.7 14.2-3.3 24.9-12.6 27.8-31.8zM239 267c-6.7 26.8-51.3 12.3-65.9 8.7l11.8-47.3c14.6 3.6 61 11 54.1 38.6zm6.7-70.5c-6 24.2-43.4 11.9-55.5 8.9l10.7-43c12.1 3 51 8.6 44.8 34.1z" fill="#fff"/>
</svg>
